<svg height="512" viewBox="0 0 512 512" width="512" xmlns="http://www.w3.org/2000/svg"><g><path d="m160 248h192v48h-192z" fill="#57565c"/><path d="m16 224h48v96h-48z" fill="#ffda44"/><path d="m64 184h48v176h-48z" fill="#57565c"/><path d="m400 184h48v176h-48z" fill="#57565c"/><path d="m112 168h48v208h-48z" fill="#2d2d30"/><path d="m352 168h48v208h-48z" fill="#2d2d30"/><path d="m448 224h48v96h-48z" fill="#ffda44"/><path d="m496 216h-40v-32a8 8 0 0 0 -8-8h-40v-8a8 8 0 0 0 -8-8h-48a8 8 0 0 0 -8 8v72h-176v-72a8 8 0 0 0 -8-8h-48a8 8 0 0 0 -8 8v8h-40a8 8 0 0 0 -8 8v32h-40a8 8 0 0 0 -8 8v96a8 8 0 0 0 8 8h40v32a8 8 0 0 0 8 8h40v8a8 8 0 0 0 8 8h48a8 8 0 0 0 8-8v-72h176v72a8 8 0 0 0 8 8h48a8 8 0 0 0 8-8v-8h40a8 8 0 0 0 8-8v-32h40a8 8 0 0 0 8-8v-96a8 8 0 0 0 -8-8zm-440 96h-32v-80h32zm48 40h-32v-160h32zm48 16h-32v-192h32zm192-80h-176v-32h176zm48 80h-32v-192h32zm48-16h-32v-160h32zm48-40h-32v-80h32z"/></g></svg>