<svg height="512" viewBox="0 0 64 64" width="512" xmlns="http://www.w3.org/2000/svg"><g id="Filled_outline" data-name="Filled outline"><path d="m7 3h44v58h-44z" fill="#3e5496"/><path d="m51 12h10v4h-10z" fill="#b11e48"/><path d="m55 24h6v4h-6z" fill="#f9bb4b"/><path d="m55 38h6v4h-6z" fill="#5f79ba"/><path d="m17 11h28v18h-28z" fill="#f4f4e6"/><g fill="#7fcac9"><path d="m3 11h8v4h-8z"/><path d="m3 24h8v4h-8z"/><path d="m3 36h8v4h-8z"/><path d="m3 48h8v4h-8z"/></g><path d="m51 5h4v7h-4z" fill="#efeedc"/><path d="m51 16h4v45h-4z" fill="#efeedc"/><path d="m55 7h4v5h-4z" fill="#d8d7c3"/><path d="m55 16h4v8h-4z" fill="#d8d7c3"/><path d="m55 28h4v10h-4z" fill="#d8d7c3"/><path d="m55 42h4v19h-4z" fill="#d8d7c3"/><path d="m61 11h-1v-4a1 1 0 0 0 -1-1h-3v-1a1 1 0 0 0 -1-1h-3v-1a1 1 0 0 0 -1-1h-44a1 1 0 0 0 -1 1v7h-3a1 1 0 0 0 -1 1v4a1 1 0 0 0 1 1h3v7h-3a1 1 0 0 0 -1 1v4a1 1 0 0 0 1 1h3v6h-3a1 1 0 0 0 -1 1v4a1 1 0 0 0 1 1h3v6h-3a1 1 0 0 0 -1 1v4a1 1 0 0 0 1 1h3v8a1 1 0 0 0 1 1h52a1 1 0 0 0 1-1v-18h1a1 1 0 0 0 1-1v-4a1 1 0 0 0 -1-1h-1v-8h1a1 1 0 0 0 1-1v-4a1 1 0 0 0 -1-1h-1v-6h1a1 1 0 0 0 1-1v-4a1 1 0 0 0 -1-1zm-57 3v-2h6v2zm0 13v-2h6v2zm0 12v-2h6v2zm0 12v-2h6v2zm46 9h-42v-7h3a1 1 0 0 0 1-1v-4a1 1 0 0 0 -1-1h-3v-6h3a1 1 0 0 0 1-1v-4a1 1 0 0 0 -1-1h-3v-6h3a1 1 0 0 0 1-1v-4a1 1 0 0 0 -1-1h-3v-7h3a1 1 0 0 0 1-1v-4a1 1 0 0 0 -1-1h-3v-6h42zm6-52h2v3h-2zm-4-2h2v5h-2zm2 54h-2v-43h2zm4 0h-2v-17h2zm2-19h-4v-2h4zm-4-4v-8h2v8zm4-10h-4v-2h4zm-4-4v-6h2v6zm4-8h-8v-2h8z"/><path d="m17 30h28a1 1 0 0 0 1-1v-18a1 1 0 0 0 -1-1h-28a1 1 0 0 0 -1 1v18a1 1 0 0 0 1 1zm1-18h26v16h-26z"/><path d="m21 19h4v2h-4z"/><path d="m29 19h4v2h-4z"/><path d="m37 19h4v2h-4z"/><path d="m46 56h-6v2h7a1 1 0 0 0 1-1v-7h-2z"/><path d="m46 46h2v2h-2z"/></g></svg>