<svg height="512" viewBox="0 0 128 128" width="512" xmlns="http://www.w3.org/2000/svg"><g><g><g fill="#fcced3"><path d="m73.639 27.7a4.6 4.6 0 0 0 -5.045 4.572v2.5h8.8c.131 0 .258.015.387.02v-2.327a4.727 4.727 0 0 0 -4.142-4.765z"/><path d="m45.625 55.644a4.594 4.594 0 0 1 -4.594-4.594v-18.783a4.594 4.594 0 0 1 4.594-4.594 4.594 4.594 0 0 1 4.594 4.594v18.783a4.594 4.594 0 0 1 -4.594 4.594z"/><path d="m54.813 55.644a4.594 4.594 0 0 1 -4.594-4.594v-18.783a4.594 4.594 0 0 1 4.594-4.594 4.593 4.593 0 0 1 4.593 4.594v18.783a4.593 4.593 0 0 1 -4.593 4.594z"/></g><rect fill="#596c76" height="63.375" rx="5" width="17.25" x="10.813" y="10.517"/><path d="m10.813 61.986h-4.063a5 5 0 0 1 -5-5v-29.563a5 5 0 0 1 5-5h4.063z" fill="#52dddc"/><rect fill="#596c76" height="63.375" rx="5" width="17.25" x="99.938" y="10.517"/><path d="m117.187 61.986h4.063a5 5 0 0 0 5-5v-29.563a5 5 0 0 0 -5-5h-4.063z" fill="#52dddc"/><path d="m77.781 51.05v-7.092h-9.187v7.092a4.594 4.594 0 0 0 4.594 4.594 4.593 4.593 0 0 0 4.593-4.594z" fill="#fcced3"/><path d="m77.394 34.77h-13.394a4.593 4.593 0 0 0 -4.572 5.045 4.38 4.38 0 0 0 .976 2.361 4.79 4.79 0 0 0 1.29 1.1 4.956 4.956 0 0 0 2.5.681h13.587v7.774h-.069a4.572 4.572 0 0 1 -9.049 0h-.138a4.573 4.573 0 0 1 -9.05 0h-.138a4.572 4.572 0 0 1 -9.049 0h-.138a4.573 4.573 0 0 1 -9.05 0h-.069v7.2a17.1 17.1 0 0 0 2.13 8.264l7.058 12.786v37.5h27.562v-37.5l7.48-10.78a9.578 9.578 0 0 0 1.708-5.458v-19.4a9.575 9.575 0 0 0 -9.575-9.573z" fill="#fde4e4"/><path d="m77.394 34.77a9.575 9.575 0 0 1 9.575 9.575v5.294h12.969v-14.869z" fill="#e1ebf0"/><path d="m28.063 34.77h12.969v14.868h-12.969z" fill="#e1ebf0"/><path d="m59.428 39.815a4.727 4.727 0 0 0 4.772 4.143h4.289c.006-2.986.021-6.216.037-9.188h-4.526a4.6 4.6 0 0 0 -4.572 5.045z" fill="none"/><path d="m68.486 43.958h-4.286a4.727 4.727 0 0 1 -4.769-4.143 4.6 4.6 0 0 1 4.569-5.045h4.523c.006-1.041.012-2.047.018-3a4.577 4.577 0 0 0 -4.992-4.07 4.727 4.727 0 0 0 -4.143 4.77v18.58a4.594 4.594 0 0 0 9.1.914c-.024-1.982-.027-4.853-.02-8.006z" fill="#fcced3"/><path d="m68.541 31.769c-.006.954-.012 1.96-.018 3h.071v-2.5a4.54 4.54 0 0 0 -.053-.5z" fill="#fcced3"/><path d="m68.5 51.964a4.668 4.668 0 0 0 .092-.914v-7.092h-.108c-.005 3.153-.002 6.024.016 8.006z" fill="#fcced3"/></g><g><path d="m117.187 37.935a1.751 1.751 0 0 0 -1.75 1.75v4.273a1.75 1.75 0 0 0 3.5 0v-4.273a1.75 1.75 0 0 0 -1.75-1.75z"/><path d="m121.25 20.673h-2.313v-5.156a6.757 6.757 0 0 0 -6.75-6.75h-7.25a6.757 6.757 0 0 0 -6.749 6.75v17.5h-18.657v-.556a6.5 6.5 0 0 0 -5.726-6.511 6.389 6.389 0 0 0 -4.884 1.619q-.169.155-.327.32-.157-.165-.327-.32a6.363 6.363 0 0 0 -4.885-1.619 6.192 6.192 0 0 0 -3.943 1.987 6.314 6.314 0 0 0 -9.22-.035 6.335 6.335 0 0 0 -10.938 4.362v.753h-9.468v-17.5a6.758 6.758 0 0 0 -6.75-6.75h-7.25a6.757 6.757 0 0 0 -6.75 6.75v5.156h-2.313a6.758 6.758 0 0 0 -6.75 6.75v29.563a6.758 6.758 0 0 0 6.75 6.75h2.313v5.156a6.757 6.757 0 0 0 6.75 6.75h7.25a6.758 6.758 0 0 0 6.75-6.75v-17.5h9.487c0 .038 0 .077.006.115a1.709 1.709 0 0 0 -.023.228v7.2a18.9 18.9 0 0 0 2.348 9.111 1.75 1.75 0 0 0 3.064-1.691 15.392 15.392 0 0 1 -1.912-7.42v-2.223a6.3 6.3 0 0 0 7.438-1.3 6.314 6.314 0 0 0 9.187 0 6.315 6.315 0 0 0 9.188 0 6.335 6.335 0 0 0 10.935-4.362v-7.092a1.75 1.75 0 0 0 -1.75-1.75h-13.581a2.976 2.976 0 0 1 -3.027-2.559c-.009-.089-.013-.178-.014-.266v-.038a2.845 2.845 0 0 1 2.841-2.825h13.394l.314.019h.02a7.828 7.828 0 0 1 7.491 7.808v19.4a7.789 7.789 0 0 1 -1.4 4.46l-7.48 10.78a1.752 1.752 0 0 0 -.312 1v35.747h-24.058v-35.748a1.75 1.75 0 0 0 -.218-.846l-1.427-2.585a1.75 1.75 0 1 0 -3.065 1.691l1.21 2.191v37.046a1.75 1.75 0 0 0 1.75 1.75h27.562a1.75 1.75 0 0 0 1.75-1.75v-36.949l7.169-10.334a11.277 11.277 0 0 0 2.02-6.455v-12.356h9.469v17.5a6.757 6.757 0 0 0 6.749 6.75h7.25a6.757 6.757 0 0 0 6.75-6.75v-5.153h2.313a6.758 6.758 0 0 0 6.75-6.75v-29.563a6.758 6.758 0 0 0 -6.751-6.75zm-114.5 39.563a3.254 3.254 0 0 1 -3.25-3.25v-29.563a3.254 3.254 0 0 1 3.25-3.25h2.313v36.063zm19.563 8.656a3.254 3.254 0 0 1 -3.25 3.25h-7.25a3.253 3.253 0 0 1 -3.25-3.25v-53.375a3.253 3.253 0 0 1 3.25-3.25h7.25a3.254 3.254 0 0 1 3.25 3.25zm3.5-32.372h9.468v11.369h-9.468zm15.812 17.374a2.847 2.847 0 0 1 -2.844-2.844v-18.783a2.844 2.844 0 1 1 5.688 0v18.783a2.847 2.847 0 0 1 -2.844 2.844zm9.188 0a2.847 2.847 0 0 1 -2.844-2.844v-18.783a2.844 2.844 0 1 1 5.687 0v18.783a2.847 2.847 0 0 1 -2.843 2.844zm21.218-2.844a2.844 2.844 0 1 1 -5.687 0v-5.342h5.687zm-11.831-5.342h2.647v5.342a2.844 2.844 0 1 1 -5.688 0v-6.079a6.649 6.649 0 0 0 3.041.737zm-.2-12.688a6.357 6.357 0 0 0 -2.844.675v-1.231a2.976 2.976 0 0 1 2.559-3.027c.095-.009.191-.014.285-.014a2.845 2.845 0 0 1 2.844 2.844 1.74 1.74 0 0 0 .17.753zm6.344-.753a2.844 2.844 0 0 1 3.128-2.83 2.976 2.976 0 0 1 2.559 3.027v.556h-5.857a1.74 1.74 0 0 0 .17-.753zm18.375 15.622v-3.544a11.278 11.278 0 0 0 -3.158-7.825h12.627v11.369zm35.781 9.1a3.254 3.254 0 0 1 -3.25 3.25h-2.313v-4.595a1.75 1.75 0 1 0 -3.5 0v13.248a3.254 3.254 0 0 1 -3.25 3.25h-7.25a3.254 3.254 0 0 1 -3.25-3.25v-53.375a3.254 3.254 0 0 1 3.25-3.25h7.25a3.254 3.254 0 0 1 3.25 3.25v12.483a1.75 1.75 0 1 0 3.5 0v-3.827h2.313a3.254 3.254 0 0 1 3.25 3.25z"/></g></g></svg>