<svg height="512" viewBox="0 0 512 512" width="512" xmlns="http://www.w3.org/2000/svg"><g id="flat"><path d="m136 392h144v72h-144z" fill="#4162aa"/><path d="m256 144 48 16 32 72-56 24v136h-144v-168l-16 24-32-32 40-56 48-16z" fill="#d32b39"/><path d="m149.422 263.734 1.917-5.751a38 38 0 0 1 36.05-25.983h4.871a38 38 0 0 1 26.87 11.13l39.435 39.435a38 38 0 0 1 10.748 32.244l-1.379 9.655a38 38 0 0 1 -31.371 32.109 37.671 37.671 0 0 0 -28.581 22.67l-16.6 39.834a60 60 0 0 1 -55.382 36.923h-7.147a60 60 0 0 1 -42.427-17.574l-26.035-26.035a60 60 0 0 1 -17.206-49.052l.909-8.184a60 60 0 0 1 36.556-48.755l47.523-19.8a37.674 37.674 0 0 0 21.249-22.866z" fill="#ea9d2d"/><rect fill="#fdc9a6" height="112" rx="32" width="64" x="184" y="64"/><path d="m248 111.893h-40l-24 24-12.2-20.328a34.116 34.116 0 0 1 1.962-38.024 34.118 34.118 0 0 1 27.294-13.648h22.944l3.678-5.516a23.3 23.3 0 0 1 31.371-7.054 23.3 23.3 0 0 1 7.4 32.9z" fill="#683b0d"/><path d="m88 351.063 55.991 55.844 19.33-20.046-56.321-55.844z" fill="#c38325"/><path d="m124.588 348.358 24 24 218.412-216.358 24-9 49-51-39-36-49 52-8 24z" fill="#fbb540"/><g fill="#fdc9a6"><path d="m88 216-32.077 44.908a29.516 29.516 0 0 0 -4.617 24.316 29.519 29.519 0 0 0 23.784 21.958l76.91 12.818 16 24 24-8 16-24-32-24-72-16 16-24"/><path d="m264 200 16 40-7.111 56.886a19.279 19.279 0 0 0 3.088 13.08l3.858 5.787a19.272 19.272 0 0 0 22.129 7.592 19.27 19.27 0 0 0 12.6-13.608 114.389 114.389 0 0 0 2.265-43.918l-4.829-33.819v-24l-8-24z"/></g></g></svg>