<svg height="512" viewBox="0 0 64 64" width="512" xmlns="http://www.w3.org/2000/svg"><g id="Financial-money-credit_card-coins-card" data-name="Financial-money-credit card-coins-card"><path d="m17 39h44v22h-44z" fill="#009698"/><path d="m57 39h4v22h-4z" fill="#007579"/><path d="m61 13v10a2.006 2.006 0 0 1 -2 2h-30a2.006 2.006 0 0 1 -2-2v-10z" fill="#fee9ab"/><path d="m27 9h34v4h-34z" fill="#898890"/><path d="m61 5v4h-34v-4a2.006 2.006 0 0 1 2-2h30a2.006 2.006 0 0 1 2 2z" fill="#ff7956"/><path d="m61 13v10a2.006 2.006 0 0 1 -2 2h-4a2.006 2.006 0 0 0 2-2v-10z" fill="#ffd422"/><path d="m57 9h4v4h-4z" fill="#787680"/><path d="m61 5v4h-4v-4a2.006 2.006 0 0 0 -2-2h4a2.006 2.006 0 0 1 2 2z" fill="#ff5023"/><path d="m59 35v4h-42v20h-4v-2-22h7 37z" fill="#007579"/><path d="m57 31v4h-37a2.015 2.015 0 0 0 2-2 2.005 2.005 0 0 0 -.88-1.66v-.34z" fill="#006468"/><circle cx="39" cy="50" fill="#ffcd00" r="7"/><path d="m46 50a7 7 0 0 1 -7 7 7.334 7.334 0 0 1 -1.5-.16 7 7 0 0 0 0-13.68 7.334 7.334 0 0 1 1.5-.16 7 7 0 0 1 7 7z" fill="#ddb200"/><path d="m22 25a2.015 2.015 0 0 1 -2 2h-14a2.006 2.006 0 0 1 -2-2 2.015 2.015 0 0 1 2-2h14a2.006 2.006 0 0 1 2 2z" fill="#fee9ab"/><path d="m22 29a2.015 2.015 0 0 1 -2 2h-14a2.006 2.006 0 0 1 -2-2 2.015 2.015 0 0 1 2-2h14a2.006 2.006 0 0 1 2 2z" fill="#ffcd00"/><path d="m21.12 31.34a2.005 2.005 0 0 1 .88 1.66 2.015 2.015 0 0 1 -2 2h-14a2.006 2.006 0 0 1 -2-2 2.015 2.015 0 0 1 2-2h14a1.974 1.974 0 0 1 1.12.34z" fill="#fee9ab"/><path d="m22 25a2.015 2.015 0 0 1 -2 2h-4a2.015 2.015 0 0 0 2-2 2.006 2.006 0 0 0 -2-2h4a2.006 2.006 0 0 1 2 2z" fill="#ffd422"/><path d="m22 29a2.015 2.015 0 0 1 -2 2h-4a2.015 2.015 0 0 0 2-2 2.006 2.006 0 0 0 -2-2h4a2.006 2.006 0 0 1 2 2z" fill="#ddb200"/><path d="m22 33a2.015 2.015 0 0 1 -2 2h-4a2.015 2.015 0 0 0 2-2 2.005 2.005 0 0 0 -.88-1.66 1.974 1.974 0 0 0 -1.12-.34h4a1.974 1.974 0 0 1 1.12.34 2.005 2.005 0 0 1 .88 1.66z" fill="#ffd422"/><circle cx="13" cy="13" fill="#ffcd00" r="10"/><path d="m23 13a10 10 0 0 1 -10 10 9.049 9.049 0 0 1 -1.48-.12 10 10 0 0 0 0-19.76 9.049 9.049 0 0 1 1.48-.12 10 10 0 0 1 10 10z" fill="#ddb200"/><path d="m9 35h4v22h-4z" fill="#006468"/><path d="m61 38h-1v-3a1 1 0 0 0 -1-1h-1v-3a1 1 0 0 0 -1-1h-34.18a3 3 0 0 0 .18-1 2.974 2.974 0 0 0 -.78-2 2.974 2.974 0 0 0 .78-2 3.009 3.009 0 0 0 -3-3h-.7a11 11 0 1 0 -12.6 0h-.7a3.009 3.009 0 0 0 -3 3 2.974 2.974 0 0 0 .78 2 2.954 2.954 0 0 0 0 4 2.974 2.974 0 0 0 -.78 2 3.009 3.009 0 0 0 3 3h2v21a1 1 0 0 0 1 1h3v1a1 1 0 0 0 1 1h3v1a1 1 0 0 0 1 1h44a1 1 0 0 0 1-1v-22a1 1 0 0 0 -1-1zm-38.18-6h33.18v2h-33.18a2.868 2.868 0 0 0 0-2zm-18.82-19a9 9 0 1 1 9 9 9.014 9.014 0 0 1 -9-9zm2 11h14a1 1 0 0 1 0 2h-14a1 1 0 0 1 0-2zm0 4h14a1 1 0 0 1 0 2h-14a1 1 0 0 1 0-2zm6 28h-2v-20h2zm-6-22a1 1 0 0 1 0-2h14a1 1 0 0 1 0 2zm10 5v19h-2v-22h44v2h-41a1 1 0 0 0 -1 1zm44 21h-42v-20h42z"/><path d="m22 47.829a3.016 3.016 0 0 0 1.829-1.829h2.171v-2h-3a1 1 0 0 0 -1 1 1 1 0 0 1 -1 1 1 1 0 0 0 -1 1v3h2z"/><path d="m56 47.829v2.171h2v-3a1 1 0 0 0 -1-1 1 1 0 0 1 -1-1 1 1 0 0 0 -1-1h-3v2h2.171a3.016 3.016 0 0 0 1.829 1.829z"/><path d="m21 56a1 1 0 0 1 1 1 1 1 0 0 0 1 1h3v-2h-2.171a3.016 3.016 0 0 0 -1.829-1.829v-2.171h-2v3a1 1 0 0 0 1 1z"/><path d="m56 57a1 1 0 0 1 1-1 1 1 0 0 0 1-1v-3h-2v2.171a3.016 3.016 0 0 0 -1.829 1.829h-2.171v2h3a1 1 0 0 0 1-1z"/><path d="m39 58a8 8 0 1 0 -8-8 8.009 8.009 0 0 0 8 8zm0-14a6 6 0 1 1 -6 6 6.006 6.006 0 0 1 6-6z"/><path d="m59 2h-30a3 3 0 0 0 -3 3v18a3 3 0 0 0 3 3h30a3 3 0 0 0 3-3v-18a3 3 0 0 0 -3-3zm-30 2h30a1 1 0 0 1 1 1v3h-32v-3a1 1 0 0 1 1-1zm31 6v2h-32v-2zm-1 14h-30a1 1 0 0 1 -1-1v-9h32v9a1 1 0 0 1 -1 1z"/><path d="m13 10a1 1 0 0 1 1 1h2a3 3 0 0 0 -2-2.816v-1.184h-2v1.184a2.993 2.993 0 0 0 1 5.816 1 1 0 1 1 -1 1h-2a3 3 0 0 0 2 2.816v1.184h2v-1.184a2.993 2.993 0 0 0 -1-5.816 1 1 0 0 1 0-2z"/></g></svg>