<?xml version="1.0"?>
<svg xmlns="http://www.w3.org/2000/svg" id="filled_outline" data-name="filled outline" viewBox="0 0 512 512" width="512" height="512"><rect x="216" y="80" width="64" height="344" style="fill:#548aff"/><rect x="280" y="152" width="64" height="272" style="fill:#639aff"/><rect x="344" y="224" width="64" height="200" style="fill:#7dafff"/><rect x="408" y="296" width="64" height="128" style="fill:#f5714f"/><path d="M176,208l14.39831-44.4301a12.693,12.693,0,0,0-.72182-9.58951v0A12.693,12.693,0,0,0,172.647,148.3039L168,150.62742l-4.68629-4.68629a16,16,0,0,0-22.62742,0L136,150.62742l-4.647-2.32352a12.693,12.693,0,0,0-17.02944,5.67647v0a12.693,12.693,0,0,0-.72182,9.58951L128,208l-22.5098,11.2549A75.05649,75.05649,0,0,0,64,286.38746v.00007A53.28992,53.28992,0,0,1,44,328l0,0a53.28992,53.28992,0,0,0-20,41.61245v12.84688a49.5406,49.5406,0,0,0,3.54331,18.39892v0A49.54061,49.54061,0,0,0,73.54062,432H230.45938a49.54061,49.54061,0,0,0,45.9973-31.14169v0A49.5406,49.5406,0,0,0,280,382.45935V369.61247A53.28992,53.28992,0,0,0,260,328l0,0a53.28992,53.28992,0,0,1-20-41.61245v-.00007a75.05649,75.05649,0,0,0-41.4902-67.13256Z" style="fill:#ffc431"/><path d="M160,280H144v17.37622A23.99787,23.99787,0,0,0,152,344a8,8,0,0,1,0,16H128v16h16v16h16V374.62378A23.99787,23.99787,0,0,0,152,328a8,8,0,0,1,0-16h24V296H160Z"/><rect x="272" y="296" width="16" height="16"/><path d="M480,296a8.00008,8.00008,0,0,0-8-8H416V224a8.00008,8.00008,0,0,0-8-8H352V152a8.00008,8.00008,0,0,0-8-8H288V80a8.00008,8.00008,0,0,0-8-8H216a8.00008,8.00008,0,0,0-8,8V200h16V88h48V280h16V160h48V416H277.23425a58.111,58.111,0,0,0,6.65-12.16992A57.29081,57.29081,0,0,0,288,382.459V369.6123a60.99112,60.99112,0,0,0-23.00244-47.85937A45.068,45.068,0,0,1,248,286.3877a82.60355,82.60355,0,0,0-45.9126-74.28809l-16.356-8.17773,12.27734-37.88575A20.69293,20.69293,0,0,0,169.585,140.89941l-.61426-.61425a23.99831,23.99831,0,0,0-33.94043-.001l-.61523.61523a20.69333,20.69333,0,0,0-28.42383,25.13672l12.27734,37.88575-16.356,8.17773A82.60355,82.60355,0,0,0,56,286.3877a45.068,45.068,0,0,1-16.99756,35.36523A60.99112,60.99112,0,0,0,16,369.6123V382.459A57.54172,57.54172,0,0,0,73.54053,440H230.45947a57.50756,57.50756,0,0,0,29.36231-8H496V416H480ZM121.47949,157.55762a4.685,4.685,0,0,1,6.2959-2.09864l4.64746,2.32325a7.99871,7.99871,0,0,0,9.2334-1.49805l4.6875-4.68652a7.99944,7.99944,0,0,1,11.31348.001l4.68652,4.68555a8.00014,8.00014,0,0,0,9.2334,1.49805l4.64746-2.32325a4.69387,4.69387,0,0,1,6.56348,5.64551L170.18311,200H133.81689l-12.605-38.89551A4.66661,4.66661,0,0,1,121.47949,157.55762ZM73.54053,424A41.5414,41.5414,0,0,1,32,382.459V369.6123a45.068,45.068,0,0,1,16.99756-35.36523A60.99112,60.99112,0,0,0,72,286.3877a66.69154,66.69154,0,0,1,37.06787-59.97754L129.88818,216h1.16748l-18.21093,36.42188,14.31054,7.15624L148.94434,216h6.11132l21.78907,43.57812,14.31054-7.15624L172.94434,216h1.16748l20.82031,10.41016A66.69154,66.69154,0,0,1,232,286.3877a60.99112,60.99112,0,0,0,23.00244,47.85937A45.068,45.068,0,0,1,272,369.6123V382.459A41.54018,41.54018,0,0,1,230.45947,424ZM352,232h48V416H352Zm64,184V304h48V416Z"/></svg>
