<svg height="512" viewBox="0 0 512 512" width="512" xmlns="http://www.w3.org/2000/svg"><g id="Filled_outline" data-name="Filled outline"><path d="m364 328a49.946 49.946 0 0 0 47.384-34.153l4.616-13.847h-8a16 16 0 0 1 -16-16v-56h-64v56a16 16 0 0 1 -16 16l4.616 13.847a49.946 49.946 0 0 0 47.384 34.153z" fill="#fdc8a2"/><path d="m192 488h56l31.671-107.681-55.638-11.297z" fill="#fdc8a2"/><path d="m440 280h-24l-4.616 13.847a49.946 49.946 0 0 1 -47.384 34.153 49.946 49.946 0 0 1 -47.384-34.153l-4.616-13.847h-33.345a40 40 0 0 0 -38.624 29.6l-16 59.421 55.638 11.3 8.331-28.321v136h144v-104h48v-64a40 40 0 0 0 -40-40z" fill="#7eb357"/><path d="m392 208v40.51a72.1 72.1 0 0 1 -64 0v-40.51z" fill="#fdbf92"/><path d="m432 488h16a32 32 0 0 0 32-32v-72h-48z" fill="#fdc8a2"/><path d="m432 352v-16h-144v16a56.569 56.569 0 0 0 0 80v56h144v-56a56.569 56.569 0 0 0 0-80z" fill="#7eb357"/><path d="m288 456h64l59.668 23.867a113.7 113.7 0 0 0 42.232 8.133 26.1 26.1 0 0 0 26.1-26.1 26.1 26.1 0 0 0 -21.565-25.7l-114.435-20.2h-32l-24 8z" fill="#fdc8a2"/><path d="m432 64a56 56 0 0 1 56 56v128a0 0 0 0 1 0 0 56 56 0 0 1 -56-56v-128a0 0 0 0 1 0 0z" fill="#804a32"/><path d="m280 128h8a0 0 0 0 1 0 0v48a0 0 0 0 1 0 0h-8a24 24 0 0 1 -24-24 24 24 0 0 1 24-24z" fill="#fdb683"/><path d="m360 240a72 72 0 0 1 -72-72v-56a64 64 0 0 1 64-64h16a64 64 0 0 1 64 64v56a72 72 0 0 1 -72 72z" fill="#fdc8a2"/><path d="m272 112v24c104-8 136-56 136-56l24 48 16 8v-24a88 88 0 0 0 -88-88 88 88 0 0 0 -88 88z" fill="#91563a"/><path d="m432 128h8a24 24 0 0 1 24 24 24 24 0 0 1 -24 24h-8a0 0 0 0 1 0 0v-48a0 0 0 0 1 0 0z" fill="#fdb683"/><rect fill="#d5d5d3" height="192" rx="24" width="272" x="24" y="232"/><path d="m128 456h96v32h-96z" fill="#d5d5d3"/><path d="m176 488h-80l32-128h64z" fill="#dfdfdd"/><path d="m16 488h480v16h-480z" fill="#dfdfdd"/><path d="m240 184h-88l-24 48-24-48h-48a32 32 0 0 1 -32-32v-80a32 32 0 0 1 32-32h184a32 32 0 0 1 32 32v80a32 32 0 0 1 -32 32z" fill="#348ed8"/><path d="m256 456h104v32h-104z" fill="#dfdfdd"/><path d="m427.108 211.678a64.105 64.105 0 0 0 60.892 44.322 8 8 0 0 0 8-8v-128a63.962 63.962 0 0 0 -57.807-63.685 95.982 95.982 0 0 0 -146.069-12.193c-2.156 2.155-4.231 4.437-6.169 6.782l12.334 10.196c1.616-1.956 3.348-3.86 5.149-5.661a79.993 79.993 0 0 1 123.485 12.723c.051.084.1.168.158.251a79.539 79.539 0 0 1 12.919 43.587v8h-3.056l-21.789-43.578a8 8 0 0 0 -13.811-.86c-.251.376-25.968 37.694-106.535 49.82l2.382 15.822c3.569-.537 7.029-1.128 10.405-1.756a12 12 0 1 0 12.666-2.652c47.616-11.127 73.778-30.8 85.882-42.62l17.856 35.712v38.112a63.673 63.673 0 0 1 -35.564 57.348 65.744 65.744 0 0 1 -49.769 3.009 64.606 64.606 0 0 1 -39.026-39.024l-15.085 5.334a79.619 79.619 0 0 0 43.444 46.649v22.684a8.009 8.009 0 0 1 -8 8v16a24.027 24.027 0 0 0 24-24v-17.61c.034 3.122 40 1.575 40-2.051v19.661a24.029 24.029 0 0 0 20.964 23.8 51.905 51.905 0 0 1 -16.431 24.278c-9.769 7.935-24.7 9.771-36.735 6.1a41.979 41.979 0 0 1 -24.746-20.278l-14.1 7.556a57.988 57.988 0 0 0 27.967 25.733 59.1 59.1 0 0 0 56.973-6.133 57.618 57.618 0 0 0 21.081-28.678l2.8-8.382h18.227a32.036 32.036 0 0 1 32 32v56h-17.43a63.893 63.893 0 0 0 -14.57-27.186v-12.81h-16v16a8 8 0 0 0 2.342 5.656c16.9 16.9 18.507 46.651 3.067 65.292l-84.019-14.826a8 8 0 0 0 -1.39-.122h-32v16h31.3l113.745 20.073a18.1 18.1 0 0 1 -3.145 35.927 105.244 105.244 0 0 1 -39.259-7.561l-57.484-22.993a20.1 20.1 0 0 0 -8.157-1.415c-17.876-.02-93-.031-93-.031a8 8 0 0 0 -8 8v24h-16v-24a8 8 0 0 0 -8-8h-34.938l2-16h80.938a32.91 32.91 0 0 0 21.332-8.156 32.018 32.018 0 0 0 10.668-23.844v-144a32.036 32.036 0 0 0 -32-32h-120v16h120a16.019 16.019 0 0 1 16 16v144c0 8.468-7.548 16-16 16h-78.938l6.876-55.008a8 8 0 0 0 -7.938-8.992h-64a8 8 0 0 0 -7.761 6.06l-14.485 57.94h-57.754a16.019 16.019 0 0 1 -16-16v-144a16.019 16.019 0 0 1 16-16h56v-16h-56a32.036 32.036 0 0 0 -32 32v144a32.036 32.036 0 0 0 32 32h53.754l-12 48h-73.754v16h480v-16h-13.221a33.892 33.892 0 0 0 5.221-18.1v-141.9a48.055 48.055 0 0 0 -48-48h-32a8.009 8.009 0 0 1 -8-8v-26.714a79.79 79.79 0 0 0 27.108-25.608zm28.892-59.678a16.019 16.019 0 0 1 -16 16v-32a16.019 16.019 0 0 1 16 16zm-7.423-77.052a48.006 48.006 0 0 1 31.423 45.052v119.333a48.078 48.078 0 0 1 -40-47.333v-8a31.989 31.989 0 0 0 16-59.695v-12.305a95.745 95.745 0 0 0 -7.423-37.052zm-58.118 405.052h-30.459v-12.184zm-284.213 0 28-112h48.692l-14 112zm78.816 0 2-16h28.938v16zm78.938 0v-16h80v16zm195.825-51.684-12.97-2.289c.208-.334.434-.659.635-1a64.464 64.464 0 0 0 9.08-33.027h15.43v40.99a34.1 34.1 0 0 0 -12.175-4.674z"/><path d="m400 148a12 12 0 1 0 -12 12 12.013 12.013 0 0 0 12-12z"/><path d="m409.184 349.108-12.314-10.215c-4.961 5.979-14.691 13.107-32.87 13.107-12.76 0-23.293-3.637-30.46-10.519l-11.081 11.542c7.116 6.832 20.1 14.977 41.541 14.977 24.391 0 38.034-10.273 45.184-18.892z"/><path d="m376 184h-16a8 8 0 0 1 -16 0h-16a24 24 0 0 0 48 0z"/><path d="m48 256h32v16h-32z"/><path d="m96 256h32v16h-32z"/><path d="m144 256h32v16h-32z"/><path d="m192 256h32v16h-32z"/><path d="m240 256h32v16h-32z"/><path d="m56 192h43.056l21.789 43.578a8 8 0 0 0 14.31 0l21.789-43.578h83.056a40.045 40.045 0 0 0 40-40v-80a40.045 40.045 0 0 0 -40-40h-184a40.045 40.045 0 0 0 -40 40v80a40.045 40.045 0 0 0 40 40zm-24-120a24.027 24.027 0 0 1 24-24h184a24.027 24.027 0 0 1 24 24v80a24.027 24.027 0 0 1 -24 24h-88a8 8 0 0 0 -7.155 4.422l-16.845 33.689-16.845-33.689a8 8 0 0 0 -7.155-4.422h-48a24.027 24.027 0 0 1 -24-24z"/><path d="m200 72h40v16h-40z"/><path d="m56 104h176v16h-176z"/><path d="m56 136h176v16h-176z"/><path d="m56 72h128v16h-128z"/></g></svg>